HIERARCHY
ROOT mixamorig:Hips
{
  OFFSET 0 96.8 0
  CHANNELS 6 Xposition Yposition Zposition Zrotation Xrotation Yrotation
  JOINT mixamorig:Spine
  {
    OFFSET 0 12.3689 -3.99218
    CHANNELS 6 Xposition Yposition Zposition Zrotation Xrotation Yrotation
    JOINT mixamorig:Spine1
    {
      OFFSET 0 14.0303 0
      CHANNELS 6 Xposition Yposition Zposition Zrotation Xrotation Yrotation
      JOINT mixamorig:Spine2
      {
        OFFSET 0 5.60109 0
        CHANNELS 6 Xposition Yposition Zposition Zrotation Xrotation Yrotation
        JOINT mixamorig:Neck
        {
          OFFSET 0 23.8357 -5.66956
          CHANNELS 6 Xposition Yposition Zposition Zrotation Xrotation Yrotation
          JOINT mixamorig:Head
          {
            OFFSET 0 9.08726 0
            CHANNELS 6 Xposition Yposition Zposition Zrotation Xrotation Yrotation
            End Site
            {
              OFFSET 0 19.5091 9.42096
            }
          }
        }
        JOINT mixamorig:RightShoulder
        {
          OFFSET -6.92539 12.7236 -3.42068
          CHANNELS 6 Xposition Yposition Zposition Zrotation Xrotation Yrotation
          JOINT mixamorig:RightArm
          {
            OFFSET 0 11.9164 0
            CHANNELS 6 Xposition Yposition Zposition Zrotation Xrotation Yrotation
            JOINT mixamorig:RightForeArm
            {
              OFFSET -1.03322e-05 25.7 1.48965e-05
              CHANNELS 6 Xposition Yposition Zposition Zrotation Xrotation Yrotation
              JOINT mixamorig:RightHand
              {
                OFFSET -1.0694e-05 26.6 1.54182e-05
                CHANNELS 6 Xposition Yposition Zposition Zrotation Xrotation Yrotation
                JOINT mixamorig:RightHandThumb1
                {
                  OFFSET 2.51819 2.31438 1.47793
                  CHANNELS 6 Xposition Yposition Zposition Zrotation Xrotation Yrotation
                  JOINT mixamorig:RightHandThumb2
                  {
                    OFFSET 0 3.93334 0
                    CHANNELS 6 Xposition Yposition Zposition Zrotation Xrotation Yrotation
                    JOINT mixamorig:RightHandThumb3
                    {
                      OFFSET 0 3.20778 0
                      CHANNELS 6 Xposition Yposition Zposition Zrotation Xrotation Yrotation
                      End Site
                      {
                        OFFSET 0 2.41783 0
                      }
                    }
                  }
                }
                JOINT mixamorig:RightHandIndex1
                {
                  OFFSET 0 8.70165 0
                  CHANNELS 6 Xposition Yposition Zposition Zrotation Xrotation Yrotation
                  JOINT mixamorig:RightHandIndex2
                  {
                    OFFSET 0 3.42558 0
                    CHANNELS 6 Xposition Yposition Zposition Zrotation Xrotation Yrotation
                    JOINT mixamorig:RightHandIndex3
                    {
                      OFFSET 0 2.63863 0
                      CHANNELS 6 Xposition Yposition Zposition Zrotation Xrotation Yrotation
                      End Site
                      {
                        OFFSET 0 2.56659 0
                      }
                    }
                  }
                }
                JOINT mixamorig:RightHandMiddle1
                {
                  OFFSET -2.22417e-05 8.95076 3.74234e-05
                  CHANNELS 6 Xposition Yposition Zposition Zrotation Xrotation Yrotation
                  JOINT mixamorig:RightHandMiddle2
                  {
                    OFFSET 0 3.4742 0
                    CHANNELS 6 Xposition Yposition Zposition Zrotation Xrotation Yrotation
                    JOINT mixamorig:RightHandMiddle3
                    {
                      OFFSET 0 2.76997 0
                      CHANNELS 6 Xposition Yposition Zposition Zrotation Xrotation Yrotation
                      End Site
                      {
                        OFFSET 0 2.7668 0
                      }
                    }
                  }
                }
                JOINT mixamorig:RightHandRing1
                {
                  OFFSET -1.75131 8.54802 0.0404412
                  CHANNELS 6 Xposition Yposition Zposition Zrotation Xrotation Yrotation
                  JOINT mixamorig:RightHandRing2
                  {
                    OFFSET 0 3.17304 0
                    CHANNELS 6 Xposition Yposition Zposition Zrotation Xrotation Yrotation
                    JOINT mixamorig:RightHandRing3
                    {
                      OFFSET 0 2.71333 0
                      CHANNELS 6 Xposition Yposition Zposition Zrotation Xrotation Yrotation
                      End Site
                      {
                        OFFSET 0 2.47778 0
                      }
                    }
                  }
                }
                JOINT mixamorig:RightHandPinky1
                {
                  OFFSET -3.57399 7.58378 0.457001
                  CHANNELS 6 Xposition Yposition Zposition Zrotation Xrotation Yrotation
                  JOINT mixamorig:RightHandPinky2
                  {
                    OFFSET 0 3.3803 0
                    CHANNELS 6 Xposition Yposition Zposition Zrotation Xrotation Yrotation
                    JOINT mixamorig:RightHandPinky3
                    {
                      OFFSET 0 1.97184 0
                      CHANNELS 6 Xposition Yposition Zposition Zrotation Xrotation Yrotation
                      End Site
                      {
                        OFFSET 0 1.98666 0
                      }
                    }
                  }
                }
              }
            }
          }
        }
        JOINT mixamorig:LeftShoulder
        {
          OFFSET 6.92539 12.7236 -3.42068
          CHANNELS 6 Xposition Yposition Zposition Zrotation Xrotation Yrotation
          JOINT mixamorig:LeftArm
          {
            OFFSET 0 11.9164 0
            CHANNELS 6 Xposition Yposition Zposition Zrotation Xrotation Yrotation
            JOINT mixamorig:LeftForeArm
            {
              OFFSET 0 25.7 0
              CHANNELS 6 Xposition Yposition Zposition Zrotation Xrotation Yrotation
              JOINT mixamorig:LeftHand
              {
                OFFSET 0 26.6 0
                CHANNELS 6 Xposition Yposition Zposition Zrotation Xrotation Yrotation
                JOINT mixamorig:LeftHandThumb1
                {
                  OFFSET -2.51807 2.31564 1.48
                  CHANNELS 6 Xposition Yposition Zposition Zrotation Xrotation Yrotation
                  JOINT mixamorig:LeftHandThumb2
                  {
                    OFFSET 0 3.93157 0
                    CHANNELS 6 Xposition Yposition Zposition Zrotation Xrotation Yrotation
                    JOINT mixamorig:LeftHandThumb3
                    {
                      OFFSET 0 3.20977 0
                      CHANNELS 6 Xposition Yposition Zposition Zrotation Xrotation Yrotation
                      End Site
                      {
                        OFFSET 0 2.4231 0
                      }
                    }
                  }
                }
                JOINT mixamorig:LeftHandIndex1
                {
                  OFFSET 0 8.70165 0
                  CHANNELS 6 Xposition Yposition Zposition Zrotation Xrotation Yrotation
                  JOINT mixamorig:LeftHandIndex2
                  {
                    OFFSET 0 3.42522 0
                    CHANNELS 6 Xposition Yposition Zposition Zrotation Xrotation Yrotation
                    JOINT mixamorig:LeftHandIndex3
                    {
                      OFFSET 0 2.63834 0
                      CHANNELS 6 Xposition Yposition Zposition Zrotation Xrotation Yrotation
                      End Site
                      {
                        OFFSET 0 2.56879 0
                      }
                    }
                  }
                }
                JOINT mixamorig:LeftHandMiddle1
                {
                  OFFSET -3.43705e-05 8.9516 -3.05546e-05
                  CHANNELS 6 Xposition Yposition Zposition Zrotation Xrotation Yrotation
                  JOINT mixamorig:LeftHandMiddle2
                  {
                    OFFSET 0 3.4742 0
                    CHANNELS 6 Xposition Yposition Zposition Zrotation Xrotation Yrotation
                    JOINT mixamorig:LeftHandMiddle3
                    {
                      OFFSET 0 2.76997 0
                      CHANNELS 6 Xposition Yposition Zposition Zrotation Xrotation Yrotation
                      End Site
                      {
                        OFFSET 0 2.77266 0
                      }
                    }
                  }
                }
                JOINT mixamorig:LeftHandRing1
                {
                  OFFSET 1.75126 8.5489 0.0404023
                  CHANNELS 6 Xposition Yposition Zposition Zrotation Xrotation Yrotation
                  JOINT mixamorig:LeftHandRing2
                  {
                    OFFSET 0 2.95776 0
                    CHANNELS 6 Xposition Yposition Zposition Zrotation Xrotation Yrotation
                    JOINT mixamorig:LeftHandRing3
                    {
                      OFFSET 0 2.76997 0
                      CHANNELS 6 Xposition Yposition Zposition Zrotation Xrotation Yrotation
                      End Site
                      {
                        OFFSET -2.1854e-05 2.48294 0
                      }
                    }
                  }
                }
                JOINT mixamorig:LeftHandPinky1
                {
                  OFFSET 3.57398 7.58481 0.457164
                  CHANNELS 6 Xposition Yposition Zposition Zrotation Xrotation Yrotation
                  JOINT mixamorig:LeftHandPinky2
                  {
                    OFFSET 0 3.3803 0
                    CHANNELS 6 Xposition Yposition Zposition Zrotation Xrotation Yrotation
                    JOINT mixamorig:LeftHandPinky3
                    {
                      OFFSET 0 1.97184 0
                      CHANNELS 6 Xposition Yposition Zposition Zrotation Xrotation Yrotation
                      End Site
                      {
                        OFFSET 0 1.99582 0
                      }
                    }
                  }
                }
              }
            }
          }
        }
      }
    }
  }
  JOINT mixamorig:RightUpLeg
  {
    OFFSET -8.5 -8.19964 0.08092
    CHANNELS 6 Xposition Yposition Zposition Zrotation Xrotation Yrotation
    JOINT mixamorig:RightLeg
    {
      OFFSET 0 42.9009 0
      CHANNELS 6 Xposition Yposition Zposition Zrotation Xrotation Yrotation
      JOINT mixamorig:RightFoot
      {
        OFFSET 0 38.0864 0
        CHANNELS 6 Xposition Yposition Zposition Zrotation Xrotation Yrotation
        JOINT mixamorig:RightToeBase
        {
          OFFSET 0 14.087 0
          CHANNELS 6 Xposition Yposition Zposition Zrotation Xrotation Yrotation
          End Site
          {
            OFFSET 0 9.45955 0
          }
        }
      }
    }
  }
  JOINT mixamorig:LeftUpLeg
  {
    OFFSET 8.5 -8.19964 0.08092
    CHANNELS 6 Xposition Yposition Zposition Zrotation Xrotation Yrotation
    JOINT mixamorig:LeftLeg
    {
      OFFSET 0 42.9009 0
      CHANNELS 6 Xposition Yposition Zposition Zrotation Xrotation Yrotation
      JOINT mixamorig:LeftFoot
      {
        OFFSET 0 38.0864 0
        CHANNELS 6 Xposition Yposition Zposition Zrotation Xrotation Yrotation
        JOINT mixamorig:LeftToeBase
        {
          OFFSET 0 14.087 0
          CHANNELS 6 Xposition Yposition Zposition Zrotation Xrotation Yrotation
          End Site
          {
            OFFSET 0 9.45957 0
          }
        }
      }
    }
  }
}
MOTION
Frames:	4
Frame Time:	0.0166667
-35.6818 94.7338 -91.7111 3.20304 -0.559285 -7.08712 0 12.3689 -3.99218 -0.688144 13.9028 1.72719 7.10543e-15 14.0303 0 -0.526624 -3.8335 1.87554 0 5.60109 0 -0.397261 4.5145 1.39038 -1.82323e-06 23.8357 -5.66956 3.86186e-06 29.2987 -9.90584e-06 0 9.08727 0 -7.55382e-15 1.27222e-14 -6.55989e-15 -6.92539 12.7236 -3.42068 67.8202 11.5572 -80.5048 -1.42109e-14 11.9164 0 -92.2835 39.7604 39.8115 -1.03322e-05 25.7 1.48965e-05 -32.2604 -1.01204 -18.5665 -1.0694e-05 26.6 1.54182e-05 -36.6869 -25.0421 -38.1396 2.51819 2.31438 1.47793 -30.9004 26.556 14.9798 -2.13163e-14 3.93334 0 1.06543 -0.266601 -0.131651 -2.13163e-14 3.20778 2.84217e-14 0.7928 -0.191401 -0.091243 -3.49832e-06 8.70165 5.04374e-06 -0.0188237 -6.94349e-05 -0 -1.42109e-14 3.42558 -1.42109e-14 0.0292947 7.95139e-16 -1.59028e-15 -3.16192e-13 2.63863 -8.23349e-10 -0.0100751 -1.59028e-15 7.95139e-16 -2.22417e-05 8.95076 3.74234e-05 -0.0575027 -0.000112091 -7.95139e-16 -1.06581e-14 3.4742 -2.84217e-14 0.0973881 3.97569e-15 -0 -2.30926e-13 2.76997 -1.44708e-08 -0.0368804 -1.59028e-15 -1.59028e-15 -1.75131 8.54802 0.0404412 0.0178567 7.9792e-06 -0 -3.55271e-15 3.17304 -2.84217e-14 -0.0253838 0 1.59028e-15 2.4869e-13 2.71333 7.70186e-10 -0.0129265 0 7.95139e-16 -3.57399 7.58378 0.457001 0.0596292 0.000535225 1.59028e-15 -1.77636e-14 3.3803 -2.84217e-14 0.096971 7.95139e-16 7.95139e-16 -4.26326e-14 1.97184 -1.98723e-08 -0.0569265 0 -0 6.92539 12.7236 -3.42068 -71.4604 1.33336 85.7929 -1.42109e-14 11.9164 -2.84217e-14 91.215 54.3265 -32.6992 0 25.7 -7.10543e-15 9.25481 -3.136 -24.5187 -2.00373e-11 26.6 -7.10543e-15 -16.2301 25.9764 19.0539 -2.51807 2.31564 1.48 30.7775 26.5578 -14.9111 -7.10543e-15 3.93157 2.84217e-14 -0.940956 -0.237838 0.117539 0 3.20977 5.68434e-14 -0.695804 -0.175996 0.084333 -6.5512e-12 8.70165 -7.10543e-15 -0.0050508 7.6384e-05 3.18055e-15 -1.06581e-14 3.42522 -7.10543e-15 0.0120434 3.90438e-05 -3.18055e-15 -6.6791e-13 2.63834 2.84217e-14 -0.00759159 3.83596e-05 -3.18055e-15 -3.43705e-05 8.9516 -3.05546e-05 -0.00362641 4.68076e-05 6.36111e-15 3.55271e-15 3.4742 0 0.0024289 -1.87453e-05 3.18055e-15 -2.69296e-12 2.76997 -2.13163e-14 0.00237084 -4.89982e-05 -0 1.75126 8.5489 0.0404023 0.000723448 7.16082e-05 9.54166e-15 -7.10543e-15 2.95776 -1.42109e-14 -1.98785e-16 -3.97569e-16 -3.18055e-15 2.48198e-06 2.76997 4.89192e-07 -3.97569e-16 -7.95139e-16 -3.18055e-15 3.57398 7.58481 0.457164 0.234317 -0.000570151 2.33218e-06 -3.55271e-15 3.3803 2.84217e-14 -0.0241399 7.20261e-05 -3.18055e-15 2.27374e-13 1.97184 3.55271e-14 -0.00768704 1.21015e-05 -0 -8.5 -8.19964 0.08092 179.683 19.5058 -7.05715 7.10543e-15 42.9009 7.10543e-15 -1.90861 -39.6288 -9.48683 -7.10543e-15 38.0864 1.42109e-14 14.4005 71.7856 -13.5739 7.10543e-15 14.087 0 -1.55001e-05 39.1744 5.51545e-06 8.5 -8.19964 0.08092 -173.021 17.5757 -26.5419 7.10543e-15 42.9009 -7.10543e-15 3.4309 -21.3886 18.4949 7.10543e-15 38.0864 0 -10.5222 65.3058 9.37859 0 14.087 0 -1.59485e-05 39.1744 5.46156e-06 
-36.0524 94.5948 -92.1548 3.34553 -0.573263 -6.32445 0 12.3689 -3.99218 -0.690083 13.7974 1.77933 0 14.0303 -1.42109e-14 -0.520553 -3.9563 1.93643 -7.10543e-15 5.60109 0 -0.393908 4.42679 1.43344 -1.82323e-06 23.8357 -5.66956 3.86186e-06 29.2987 -9.90584e-06 0 9.08727 0 -7.05686e-15 1.59028e-14 -7.7526e-15 -6.92539 12.7236 -3.42068 67.8264 11.4837 -80.5443 0 11.9164 1.42109e-14 -91.9817 39.7153 39.2295 -1.03322e-05 25.7 1.48965e-05 -31.5365 -1.35905 -17.2336 -1.0694e-05 26.6 1.54182e-05 -37.599 -23.5135 -37.2017 2.51819 2.31438 1.47793 -30.9004 26.556 14.9798 -1.42109e-14 3.93334 -1.42109e-14 1.06543 -0.266601 -0.131651 -1.42109e-14 3.20778 1.42109e-14 0.7928 -0.191401 -0.091243 -3.49832e-06 8.70165 5.04374e-06 -0.0188237 -6.94349e-05 7.95139e-16 -1.06581e-14 3.42558 -1.42109e-14 0.0292947 7.95139e-16 -7.95139e-16 -3.16192e-13 2.63863 -8.23349e-10 -0.0100751 -1.98785e-15 -7.95139e-16 -2.22417e-05 8.95076 3.74234e-05 -0.0575027 -0.000112091 -0 -1.06581e-14 3.4742 -2.84217e-14 0.0973881 -3.97569e-16 7.95139e-16 -2.41585e-13 2.76997 -1.44708e-08 -0.0368804 2.78299e-15 -0 -1.75131 8.54802 0.0404412 0.0178567 7.9792e-06 -0 -7.10543e-15 3.17304 -2.84217e-14 -0.0253838 3.18055e-15 -0 2.45137e-13 2.71333 7.70171e-10 -0.0129265 7.95139e-16 7.95139e-16 -3.57399 7.58378 0.457001 0.0596292 0.000535225 -7.95139e-16 -7.10543e-15 3.3803 -2.84217e-14 0.096971 1.19271e-15 7.95139e-16 -3.90799e-14 1.97184 -1.98723e-08 -0.0569265 -1.98785e-15 1.59028e-15 6.92539 12.7236 -3.42068 -71.5709 1.20414 85.8562 1.42109e-14 11.9164 1.42109e-14 92.8443 54.2569 -33.4343 7.10543e-15 25.7 0 10.4816 -4.44968 -24.4522 -2.00302e-11 26.6 -7.10543e-15 -16.1751 26.6526 19.4658 -2.51807 2.31564 1.48 30.7775 26.5578 -14.9111 0 3.93157 1.42109e-14 -0.940956 -0.237838 0.117539 0 3.20977 4.26326e-14 -0.695804 -0.175996 0.084333 -6.54765e-12 8.70165 7.10543e-15 -0.0050508 7.6384e-05 -9.54166e-15 -8.88178e-15 3.42522 -7.10543e-15 0.0120434 3.90438e-05 -3.18055e-15 -6.6791e-13 2.63834 3.55271e-14 -0.00759159 3.83596e-05 6.36111e-15 -3.43705e-05 8.9516 -3.05546e-05 -0.00362641 4.68076e-05 -0 -3.55271e-15 3.4742 -7.10543e-15 0.0024289 -1.87453e-05 3.18055e-15 -2.69296e-12 2.76997 -2.13163e-14 0.00237084 -4.89982e-05 3.18055e-15 1.75126 8.5489 0.0404023 0.000723448 7.16082e-05 -6.36111e-15 -1.77636e-15 2.95776 -7.10543e-15 0 1.59028e-15 -0 2.48198e-06 2.76997 4.89191e-07 4.41391e-32 7.95139e-16 -3.18055e-15 3.57398 7.58481 0.457164 0.234317 -0.000570151 2.33218e-06 -3.55271e-15 3.3803 2.13163e-14 -0.0241399 7.20261e-05 3.18055e-15 2.27374e-13 1.97184 4.26326e-14 -0.00768704 1.21015e-05 -3.18055e-15 -8.5 -8.19964 0.08092 179.787 19.6583 -7.07506 1.42109e-14 42.9009 0 -1.6461 -39.2296 -8.76052 -1.06581e-14 38.0864 1.42109e-14 14.4759 71.8745 -13.6312 -1.06581e-14 14.087 0 -1.55001e-05 39.1744 5.51545e-06 8.5 -8.19964 0.08092 -173.006 17.7548 -26.8495 1.06581e-14 42.9009 7.10543e-15 3.37753 -21.0588 18.8318 0 38.0864 0 -10.6022 65.592 9.50362 0 14.087 0 -1.59485e-05 39.1744 5.46156e-06 
-36.2594 94.4761 -92.368 3.46662 -0.59729 -5.61315 0 12.3689 -3.99218 -0.688781 13.6993 1.83564 0 14.0303 0 -0.51003 -4.07052 2.00283 -7.10543e-15 5.60109 0 -0.38745 4.3452 1.48002 -1.82323e-06 23.8357 -5.66956 3.86186e-06 29.2987 -9.90584e-06 -7.10543e-15 9.08727 0 -7.15625e-15 0 -6.43565e-15 -6.92539 12.7236 -3.42068 67.8146 11.4406 -80.5674 0 11.9164 1.42109e-14 -91.5639 39.6521 38.7272 -1.03322e-05 25.7 1.48965e-05 -31.0932 -1.74137 -16.0459 -1.0694e-05 26.6 1.54182e-05 -38.5865 -21.3698 -36.1738 2.51819 2.31438 1.47793 -30.9004 26.556 14.9798 -2.84217e-14 3.93334 0 1.06543 -0.266601 -0.131651 -2.84217e-14 3.20778 4.26326e-14 0.7928 -0.191401 -0.091243 -3.49832e-06 8.70165 5.04374e-06 -0.0188237 -6.94349e-05 7.95139e-16 -7.10543e-15 3.42558 -1.42109e-14 0.0292947 -2.78299e-15 1.59028e-15 -3.23297e-13 2.63863 -8.23349e-10 -0.0100751 0 7.95139e-16 -2.22417e-05 8.95076 3.74234e-05 -0.0575027 -0.000112091 1.59028e-15 -1.06581e-14 3.4742 -2.84217e-14 0.0973881 0 -0 -2.38032e-13 2.76997 -1.44708e-08 -0.0368804 1.19271e-15 -0 -1.75131 8.54802 0.0404412 0.0178567 7.9792e-06 -0 -3.55271e-15 3.17304 -1.42109e-14 -0.0253838 3.97569e-16 -7.95139e-16 2.45137e-13 2.71333 7.70171e-10 -0.0129265 -7.95139e-16 7.95139e-16 -3.57399 7.58378 0.457001 0.0596292 0.000535225 2.38542e-15 -1.06581e-14 3.3803 -2.84217e-14 0.096971 3.97569e-15 7.95139e-16 -4.61853e-14 1.97184 -1.98723e-08 -0.0569265 1.59028e-15 -7.95139e-16 6.92539 12.7236 -3.42068 -71.6689 1.09287 85.9145 0 11.9164 -1.42109e-14 94.3903 54.1978 -34.1699 0 25.7 0 11.7458 -5.70677 -24.3236 -2.00231e-11 26.6 7.10543e-15 -16.2475 27.3203 19.8986 -2.51807 2.31564 1.48 30.7775 26.5578 -14.9111 -1.42109e-14 3.93157 1.42109e-14 -0.940956 -0.237838 0.117539 -7.10543e-15 3.20977 4.26326e-14 -0.695804 -0.175996 0.084333 -6.5512e-12 8.70165 -7.10543e-15 -0.0050508 7.6384e-05 -3.18055e-15 -7.10543e-15 3.42522 -7.10543e-15 0.0120434 3.90438e-05 -6.36111e-15 -6.60805e-13 2.63834 2.84217e-14 -0.00759159 3.83596e-05 3.18055e-15 -3.43705e-05 8.9516 -3.05546e-05 -0.00362641 4.68076e-05 -0 -3.55271e-15 3.4742 0 0.0024289 -1.87453e-05 -0 -2.69651e-12 2.76997 -1.42109e-14 0.00237084 -4.89982e-05 -3.18055e-15 1.75126 8.5489 0.0404023 0.000723448 7.16082e-05 -3.18055e-15 -3.55271e-15 2.95776 0 3.97569e-16 2.38542e-15 3.18055e-15 2.48198e-06 2.76997 4.89192e-07 3.97569e-16 0 -0 3.57398 7.58481 0.457164 0.234317 -0.000570151 2.33218e-06 0 3.3803 2.84217e-14 -0.0241399 7.20261e-05 6.36111e-15 2.30926e-13 1.97184 2.84217e-14 -0.00768704 1.21015e-05 3.18055e-15 -8.5 -8.19964 0.08092 179.902 19.7912 -7.1532 1.42109e-14 42.9009 -7.10543e-15 -1.40271 -38.8306 -8.0375 -7.10543e-15 38.0864 0 14.5719 71.9859 -13.7082 0 14.087 0 -1.55001e-05 39.1744 5.51545e-06 8.5 -8.19964 0.08092 -173.003 17.8257 -27.0947 0 42.9009 7.10543e-15 3.33237 -20.8146 18.8862 -1.77636e-15 38.0864 0 -10.6653 65.7743 9.58307 0 14.087 -7.10543e-15 -1.59485e-05 39.1744 5.46156e-06 
-36.4112 94.3865 -92.0961 3.53797 -0.654467 -5.04218 -7.10543e-15 12.3689 -3.99218 -0.68381 13.6203 1.9083 0 14.0303 -1.42109e-14 -0.492651 -4.16232 2.089 0 5.60109 0 -0.376271 4.27961 1.54008 -1.82323e-06 23.8357 -5.66956 3.86186e-06 29.2987 -9.90584e-06 -3.55271e-15 9.08727 2.84217e-14 -6.26172e-15 6.36111e-15 -6.75868e-15 -6.92539 12.7236 -3.42068 67.7436 11.5061 -80.5315 -1.42109e-14 11.9164 1.42109e-14 -90.8106 39.5177 38.4071 -1.03322e-05 25.7 1.48965e-05 -30.7155 -1.87139 -15.0695 -1.0694e-05 26.6 1.54182e-05 -40.0194 -18.2469 -34.2052 2.51819 2.31438 1.47793 -30.9004 26.556 14.9798 -1.42109e-14 3.93334 0 1.06543 -0.266601 -0.131651 -1.42109e-14 3.20778 1.42109e-14 0.7928 -0.191401 -0.091243 -3.49832e-06 8.70165 5.04374e-06 -0.0188237 -6.94349e-05 -3.97569e-16 -7.10543e-15 3.42558 -1.42109e-14 0.0292947 -7.95139e-16 -0 -3.19744e-13 2.63863 -8.23363e-10 -0.0100751 1.98785e-15 -3.97569e-16 -2.22417e-05 8.95076 3.74234e-05 -0.0575027 -0.000112091 -3.97569e-16 0 3.4742 -4.26326e-14 0.0973881 1.98785e-15 3.97569e-16 -2.38032e-13 2.76997 -1.44708e-08 -0.0368804 1.78906e-15 3.97569e-16 -1.75131 8.54802 0.0404412 0.0178567 7.9792e-06 -7.95139e-16 -3.55271e-15 3.17304 -4.26326e-14 -0.0253838 -5.96354e-16 3.97569e-16 2.4869e-13 2.71333 7.70171e-10 -0.0129265 0 7.95139e-16 -3.57399 7.58378 0.457001 0.0596292 0.000535225 -7.95139e-16 -1.77636e-14 3.3803 -2.84217e-14 0.096971 -5.96354e-16 -0 -4.61853e-14 1.97184 -1.98723e-08 -0.0569265 -1.19271e-15 3.97569e-16 6.92539 12.7236 -3.42068 -71.7341 1.02428 85.9498 1.42109e-14 11.9164 0 95.7627 54.1761 -34.9328 0 25.7 -2.13163e-14 12.6434 -6.55531 -24.0162 -2.00373e-11 26.6 -7.10543e-15 -16.3 27.8682 20.2129 -2.51807 2.31564 1.48 30.7775 26.5578 -14.9111 -1.42109e-14 3.93157 0 -0.940956 -0.237838 0.117539 -7.10543e-15 3.20977 4.26326e-14 -0.695804 -0.175996 0.084333 -6.55476e-12 8.70165 0 -0.0050508 7.6384e-05 -3.18055e-15 -1.06581e-14 3.42522 -7.10543e-15 0.0120434 3.90438e-05 -0 -6.64357e-13 2.63834 2.84217e-14 -0.00759159 3.83596e-05 6.36111e-15 -3.43705e-05 8.9516 -3.05546e-05 -0.00362641 4.68076e-05 -0 3.55271e-15 3.4742 0 0.0024289 -1.87453e-05 -3.18055e-15 -2.69651e-12 2.76997 -1.42109e-14 0.00237084 -4.89982e-05 3.18055e-15 1.75126 8.5489 0.0404023 0.000723448 7.16082e-05 3.18055e-15 -3.55271e-15 2.95776 -1.42109e-14 -3.97569e-16 0 -6.36111e-15 2.48198e-06 2.76997 4.89192e-07 1.19271e-15 0 -0 3.57398 7.58481 0.457164 0.234317 -0.000570151 2.33218e-06 -3.55271e-15 3.3803 2.13163e-14 -0.0241399 7.20261e-05 3.18055e-15 2.27374e-13 1.97184 2.84217e-14 -0.00768704 1.21015e-05 3.18055e-15 -8.5 -8.19964 0.08092 -179.954 19.8518 -7.41691 0 42.9009 -7.10543e-15 -1.18494 -38.4385 -7.29542 -1.06581e-14 38.0864 0 14.7426 72.18 -13.8576 3.55271e-15 14.087 -7.10543e-15 -1.55001e-05 39.1744 5.51545e-06 8.5 -8.19964 0.08092 -173.081 17.6135 -27.0959 7.10543e-15 42.9009 7.10543e-15 3.33074 -20.733 18.2041 -5.32907e-15 38.0864 1.42109e-14 -10.7083 65.7161 9.55016 -3.55271e-15 14.087 0 -1.59485e-05 39.1744 5.46156e-06 
